<svg viewBox="0 0 166 186" fill="none"
    xmlns="http://www.w3.org/2000/svg">
    <g filter="url(#filter0_d_2303_95556)">
        <path d="M12 28C12 18.0589 20.0589 10 30 10H123.462L150 36.9318V150C150 159.941 141.941 168 132 168H30C20.0589 168 12 159.941 12 150V28Z" fill="white"/>
        <path d="M12.5 28C12.5 18.335 20.335 10.5 30 10.5H123.252L149.5 37.1368V150C149.5 159.665 141.665 167.5 132 167.5H30C20.335 167.5 12.5 159.665 12.5 150V28Z" stroke="#ECF2F7"/>
    </g>
    <path d="M63.3043 106.839C65.4667 110.648 70.0611 104.934 75.7346 91.8727C82.3725 76.5917 82.4915 69.0143 77.897 70.1028C75.5078 70.6688 77.1166 80.4627 82.4912 88.0634C87.452 95.0789 98.2779 101.114 98.9756 96.2271C99.5197 92.4161 90.8679 92.4174 80.8682 95.1386C70.8685 97.8598 61.142 103.031 63.3043 106.839Z" stroke="currentColor" stroke-width="3" stroke-linecap="round" stroke-linejoin="round"/>
    <defs>
        <filter id="filter0_d_2303_95556" x="0" y="0" width="166" height="186" filterUnits="userSpaceOnUse" color-interpolation-filters="sRGB">
            <feFlood flood-opacity="0" result="BackgroundImageFix"/>
            <feColorMatrix in="SourceAlpha" type="matrix" values="0 0 0 0 0 0 0 0 0 0 0 0 0 0 0 0 0 0 127 0" result="hardAlpha"/>
            <feOffset dx="2" dy="4"/>
            <feGaussianBlur stdDeviation="7"/>
            <feComposite in2="hardAlpha" operator="out"/>
            <feColorMatrix type="matrix" values="0 0 0 0 0 0 0 0 0 0 0 0 0 0 0 0 0 0 0.03 0"/>
            <feBlend mode="normal" in2="BackgroundImageFix" result="effect1_dropShadow_2303_95556"/>
            <feBlend mode="normal" in="SourceGraphic" in2="effect1_dropShadow_2303_95556" result="shape"/>
        </filter>
    </defs>
</svg>
