<svg width="15" height="18" viewBox="0 0 15 18" fill="none"
    xmlns="http://www.w3.org/2000/svg">
    <path d="M7.5 17L7.37438 17.2161L7.5 17.2892L7.62562 17.2161L7.5 17ZM7.5 17C7.62562 17.2161 7.62572 17.2161 7.62583 17.216L7.62619 17.2158L7.62735 17.2151L7.63143 17.2127L7.64648 17.2038C7.65953 17.1961 7.67855 17.1847 7.70314 17.1697C7.75232 17.1397 7.8238 17.0954 7.9144 17.0372C8.09556 16.9208 8.35333 16.749 8.66219 16.5254C9.27947 16.0788 10.1031 15.4242 10.9275 14.5927C12.5699 12.9363 14.25 10.5425 14.25 7.66667C14.25 3.8527 11.2339 0.75 7.5 0.75C3.76615 0.75 0.75 3.8527 0.75 7.66667C0.75 10.5425 2.4301 12.9363 4.07247 14.5927C4.89693 15.4242 5.72053 16.0788 6.33781 16.5254C6.64667 16.749 6.90444 16.9208 7.0856 17.0372C7.1762 17.0954 7.24768 17.1397 7.29686 17.1697C7.32145 17.1847 7.34047 17.1961 7.35352 17.2038L7.36857 17.2127L7.37265 17.2151L7.37381 17.2158L7.37417 17.216C7.37428 17.2161 7.37438 17.2161 7.5 17Z" fill="#C5C9CE" stroke="white" stroke-width="0.5"/>
    <ellipse cx="7.5002" cy="7.66683" rx="1.3" ry="1.33333" fill="white"/>
</svg>
